<?xml version="1.0" encoding="UTF-8"?>
<svg viewBox="0 0 1004.7 420.72" xmlns="http://www.w3.org/2000/svg">
<path d="m757.1 180.94v-78.344c0-7.8116 6.3548-14.166 14.166-14.166h51.251c7.8116 0 14.166 6.3548 14.166 14.166v78.344c0 7.8116-6.3548 14.166-14.166 14.166h-51.251c-7.8116 0-14.166-6.3548-14.166-14.166z" fill="#d46837"/>
<rect transform="translate(1593.8 237.83) rotate(180)" x="783.34" y="115.53" width="27.092" height="6.7731" fill="#3f3d56"/>
<rect transform="translate(1593.8 198.88) rotate(180)" x="790.12" y="88.434" width="13.546" height="22.013" fill="#3f3d56"/>
<rect transform="translate(1593.8 368.21) rotate(180)" x="790.12" y="173.1" width="13.546" height="22.013" fill="#3f3d56"/>
<path d="m720.69 184.11h-78.344c-7.8116 0-14.166-6.3548-14.166-14.166v-51.251c0-7.8116 6.3548-14.166 14.166-14.166h78.344c7.8116 0 14.166 6.3548 14.166 14.166v51.251c0 7.8116-6.3548 14.166-14.166 14.166z" fill="#d46837"/>
<rect x="669.67" y="115.53" width="27.092" height="6.7731" fill="#3f3d56"/>
<rect transform="translate(783.51 -494.87) rotate(90)" x="632.42" y="133.31" width="13.546" height="22.013" fill="#3f3d56"/>
<rect transform="translate(868.17 -579.53) rotate(90)" x="717.08" y="133.31" width="13.546" height="22.013" fill="#3f3d56"/>
<path d="m85.182 330.61-13.079-76.293c-5.8116-33.901 19.28-65.272 53.629-67.051l186.45-9.6568 44.498-73.34c5.8992-9.7228 16.447-15.66 27.819-15.66h133.97c10.531 0 19.428 7.8092 20.795 18.251l3.4022 58.683 334 1 42.016 138.47-39-1.9016 2 42-51 2-17.001-48.072c-3.2013-9.052-17.229-19.258-31.81-27.798-32.687-19.143-74.682-12.999-99.419 15.689-5.8354 6.7677-9.915 13.819-11.055 20.431l-7.7154 44.749-374-6-49.016-68.566c-14.481-15.759-82.843-21.548-89 0l-36.984 54.566-29.5-1.5z" fill="#e6e6e6"/>
<path d="m491.68 133.24 11.004 51.874-140 3 29.568-63.485c2.6824-5.7592 8.5706-9.3348 14.918-9.0588l67.087 2.9168c8.4926 0.36924 15.659 6.4379 17.423 14.753z" fill="#fff"/>
<polygon points="343.68 184.11 371.68 112.11 364.35 104.78 318.68 174.11 327.96 188.11" fill="#fff"/>
<circle cx="744.68" cy="352.11" r="66" fill="#3f3d56"/>
<path d="m699.18 352.11c0-25.089 20.411-45.5 45.5-45.5s45.5 20.411 45.5 45.5-20.411 45.5-45.5 45.5-45.5-20.411-45.5-45.5zm1 0c0 24.537 19.962 44.5 44.5 44.5s44.5-19.963 44.5-44.5-19.962-44.5-44.5-44.5-44.5 19.963-44.5 44.5z" fill="#fff"/>
<path d="m705.68 352.11c0 21.539 17.461 39 39 39s39-17.461 39-39-17.461-39-39-39-39 17.461-39 39zm64.351-9.3391-6.91 4.5035-2.6548-4.0734 9.5648-0.43018zm-10.52 22.905 1.8402-4.5005 5.7942 7.6221-7.6345-3.1216zm-17.694 15.435 4.8622-8.248v8.248h-4.8622zm0-47.752 4.8622-8.248v8.248h-4.8622zm-21.604 35.439 5.7942-7.6221 1.8402 4.5005-7.6345 3.1216zm-2.8853-26.026 9.5648 0.43018-2.6548 4.0734-6.91-4.5035z" fill="#e6e6e6"/>
<circle cx="190.68" cy="352.11" r="66" fill="#3f3d56"/>
<path d="m145.18 352.11c0-25.089 20.411-45.5 45.5-45.5s45.5 20.411 45.5 45.5-20.411 45.5-45.5 45.5-45.5-20.411-45.5-45.5zm1 0c0 24.537 19.962 44.5 44.5 44.5s44.5-19.963 44.5-44.5-19.962-44.5-44.5-44.5-44.5 19.963-44.5 44.5z" fill="#fff"/>
<path d="m151.68 352.11c0 21.539 17.461 39 39 39s39-17.461 39-39-17.461-39-39-39-39 17.461-39 39zm64.351-9.3391-6.91 4.5035-2.6548-4.0734 9.5648-0.43018zm-10.52 22.905 1.8402-4.5005 5.7942 7.6221-7.6345-3.1216zm-17.694 15.435 4.8622-8.248v8.248h-4.8622zm0-47.752 4.8622-8.248v8.248h-4.8622zm-21.604 35.439 5.7942-7.6221 1.8402 4.5005-7.6345 3.1216zm-2.8853-26.026 9.5648 0.43018-2.6548 4.0734-6.91-4.5035z" fill="#e6e6e6"/>
<rect transform="translate(970.36 415.22) rotate(180)" x="466.18" y="203.61" width="38" height="8" fill="#3f3d56"/>
<g fill="#f2f2f2">
<path d="m1001.8 368.65c-0.35419-1.0838-3.0387-0.60669-3.2964-1.5761-0.25685-0.96594 2.3191-1.7759 4.2948-4.498 0.3563-0.49089 2.6014-3.5844 1.7404-4.8855-1.6322-2.4662-12.988 3.6762-15.714 0.22927-0.59824-0.75646-0.84437-2.0551-2.6265-4.472-0.70898-0.96147-1.1638-1.4256-1.7073-1.4119-0.77113 0.01948-1.047 0.98418-2.259 2.7317-1.8176 2.6207-2.4735 2.2917-3.6709 4.4389-0.88887 1.594-0.9942 2.6125-1.6352 2.6726-0.90705 0.08497-1.2818-1.8996-2.3902-1.9766-1.131-0.07854-2.2628 1.8825-2.8238 3.4146-1.0528 2.8751-0.40089 5.0726-0.25634 7.2627 0.15706 2.38-0.21174 5.864-2.7978 10.336l-24.392 38.862c5.2384-7.9223 20.108-29.526 26.099-37.45 1.7295-2.2876 3.588-4.5846 6.4486-5.0167 2.7541-0.41608 6.1051 0.9465 10.782 0.86718 0.54625-0.00924 2.0665-0.0544 2.4362-0.86016 0.30573-0.66614-0.45336-1.2453-0.17722-1.8715 0.37038-0.83991 2.0368-0.47957 4.3078-1.0374 1.6014-0.39336 2.6893-1.0432 3.6249-1.6021 0.28206-0.1685 4.4839-2.7138 4.0124-4.1566h-4e-5z"/>
<path d="m937.9 377.73c-0.63416-0.1389-1.1745 1.3164-1.7247 1.1631-0.54821-0.15264-0.20248-1.6506-0.96847-3.4057-0.13813-0.3165-1.0086-2.311-1.8957-2.2638-1.6814 0.08948-1.9432 7.4354-4.4215 7.7787-0.54387 0.07536-1.2523-0.17855-2.9527-0.00121-0.67646 0.07056-1.0355 0.15987-1.1856 0.43056-0.21293 0.38409 0.18092 0.79788 0.68891 1.8969 0.76182 1.6482 0.41106 1.8752 1.1195 3.0825 0.52589 0.89619 0.99539 1.2418 0.8399 1.5737-0.22 0.4697-1.3022 0.08104-1.6598 0.60279-0.36488 0.53245 0.27105 1.6537 0.86113 2.3711 1.1074 1.3463 2.374 1.6604 3.4906 2.2214 1.2135 0.60963 2.817 1.7959 4.2656 4.3554l12.036 23.184c-2.3769-4.8569-8.6896-18.388-10.85-23.615-0.62375-1.5089-1.2149-3.0838-0.60158-4.6125 0.59043-1.4718 2.2261-2.7233 3.5367-5.0419 0.15308-0.27078 0.56954-1.0299 0.28078-1.4439-0.23873-0.34225-0.74203-0.13679-0.96968-0.453-0.30536-0.42414 0.35231-1.138 0.73376-2.4136 0.26898-0.89945 0.26391-1.6209 0.25955-2.2414-0.00132-0.18705-0.03819-2.9837-0.88236-3.1686v6e-5z"/>
<path d="M949.90939,383.38456l.37832-3.49289,.23204-.21944c1.07353-1.01459,1.74511-2.08947,1.99703-3.19576,.04009-.17587,.07113-.35379,.1029-.53496,.12563-.71817,.28159-1.61095,.97206-2.53825,.38642-.51664,1.40861-1.68432,2.46285-1.27646,.28454,.10665,.47659,.29111,.61001,.48669,.03349-.03397,.06781-.06778,.1045-.10451,.45539-.44254,.77396-.60465,1.08083-.76077,.2358-.12014,.47929-.24373,.89134-.5733,.18077-.1445,.32552-.27458,.44749-.38383,.36992-.33031,.84308-.71708,1.4912-.56388,.68704,.18779,.9226,.84315,1.07888,1.27702,.27909,.77389,.36506,1.30609,.42193,1.65905,.02048,.12894,.04423,.27414,.0622,.32134,.15038,.379,2.03808,.47702,2.74835,.51798,1.59658,.08663,2.97812,.1616,3.31036,1.25481,.2384,.78209-.25846,1.63511-1.51932,2.60275-.39275,.30105-.78541,.50883-1.12749,.664,.21041,.19894,.37804,.4695,.3883,.83799h0c.0231,.87225-.87152,1.54156-2.65888,1.99276-.44416,.11339-1.04159,.26343-1.82338,.22552-.36818-.01821-.6907-.07459-.96567-.12728-.041,.15667-.11618,.31955-.25171,.47414-.39781,.45538-1.04027,.57117-1.91232,.31448-.96274-.26828-1.72342-.63312-2.39463-.95383-.5863-.27931-1.09182-.51816-1.516-.58341-.78894-.11033-1.52462,.37678-2.40503,1.02507l-2.20612,1.65499h-.00002Z"/>
<path d="M956.20565,363.48982l-3.47462,.52002-.27111-.16879c-1.25371-.78108-2.46376-1.15805-3.59778-1.12111-.1803,.00584-.36025,.02093-.54357,.03616-.72655,.06063-1.6297,.13624-2.7018-.29644-.59778-.24273-1.98653-.93531-1.85941-2.05852,.03099-.30227,.16071-.53484,.31606-.7135-.04138-.02377-.08278-.04838-.1276-.07456-.54357-.32826-.7812-.59529-1.01005-.85253-.17602-.19762-.35734-.40179-.78064-.71678-.18563-.13821-.34817-.24522-.48479-.33548-.41335-.27401-.90747-.63364-.92367-1.29942,.00738-.7122,.58157-1.10629,.9616-1.36752,.6778-.46625,1.17077-.68442,1.49777-.82896,.11952-.0525,.25396-.11232,.29506-.14167,.32846-.24159-.05553-2.09241-.19606-2.78985-.32117-1.56633-.5991-2.9217,.37411-3.52036,.69605-.42897,1.6472-.16474,2.903,.80945,.39082,.30354,.69141,.63066,.92828,.9222,.13906-.25398,.35825-.48479,.7121-.58814h0c.83787-.24358,1.7122,.452,2.60201,2.06645,.22234,.40087,.51902,.94071,.68064,1.70654,.07577,.36075,.10303,.68702,.12182,.96639,.16196-.00009,.33856,.03133,.52248,.12321,.54138,.26929,.81637,.86137,.78926,1.77001-.0153,.9993-.17526,1.82765-.31524,2.55826-.12147,.63798-.22429,1.18755-.17979,1.6144,.0934,.79113,.75118,1.37918,1.60159,2.06637l2.16045,1.71418h-.00009Z"/>
<path d="M956.67397,353.05554l.37832-3.49289,.23204-.21944c1.07353-1.01459,1.74511-2.08947,1.99703-3.19576,.04009-.17587,.07113-.35379,.1029-.53496,.12563-.71817,.28159-1.61095,.97206-2.53825,.38642-.51664,1.40861-1.68432,2.46285-1.27646,.28454,.10665,.47659,.29111,.61001,.48669,.03349-.03397,.06781-.06778,.1045-.10451,.45539-.44254,.77396-.60465,1.08083-.76077,.2358-.12014,.47929-.24373,.89134-.5733,.18077-.1445,.32552-.27458,.44749-.38383,.36992-.33031,.84308-.71708,1.4912-.56388,.68704,.18779,.9226,.84315,1.07888,1.27702,.27909,.77389,.36506,1.30609,.42193,1.65905,.02048,.12894,.04423,.27414,.0622,.32134,.15038,.379,2.03808,.47702,2.74835,.51798,1.59658,.08663,2.97812,.1616,3.31036,1.25481,.2384,.78209-.25846,1.63511-1.51932,2.60275-.39275,.30105-.78541,.50883-1.12749,.664,.21041,.19894,.37804,.4695,.3883,.83799h0c.0231,.87225-.87152,1.54156-2.65888,1.99276-.44416,.11339-1.04159,.26343-1.82338,.22552-.36818-.01821-.6907-.07459-.96567-.12728-.041,.15667-.11618,.31955-.25171,.47414-.39781,.45538-1.04027,.57117-1.91232,.31448-.96274-.26828-1.72342-.63312-2.39463-.95383-.5863-.27931-1.09182-.51816-1.516-.58341-.78894-.11033-1.52462,.37678-2.40503,1.02507l-2.20612,1.65499h-.00002Z"/>
<path d="m945.41 419.98-0.61431-0.60685 0.01109-0.8629-0.01109 0.8629-0.85388-0.09027c0.00408-0.08028-0.00153-0.26809-0.00778-0.56139-0.03285-1.6068-0.13482-6.4971 0.54614-14.011 0.47549-5.2452 1.27-10.569 2.3616-15.827 1.0934-5.2662 2.2282-9.1846 3.1396-12.334 0.68784-2.3754 1.3821-4.6284 2.0598-6.8229 1.8087-5.8633 3.5164-11.402 4.574-17.719 0.23682-1.4102 0.72832-4.3458-0.27798-7.8107-0.58387-2.0095-1.5836-3.9011-2.9723-5.6203l1.3441-1.0855c1.5324 1.8998 2.6379 3.9946 3.2864 6.2258 1.1157 3.8416 0.58022 7.0404 0.32292 8.5773-1.0764 6.4291-2.8012 12.021-4.6276 17.941-0.67427 2.1867-1.3663 4.4298-2.0511 6.7955-0.90321 3.1202-2.0278 7.0045-3.107 12.203-1.0793 5.1951-1.8636 10.454-2.3339 15.633-0.67194 7.4192-0.571 12.237-0.53795 13.819 0.01708 0.84502 0.02077 1.022-0.2508 1.2948v-2e-5z"/>
<path d="M949.67486,340.56405c-.06911-.01541-.13867-.03265-.20832-.05338-1.41759-.39736-2.55471-1.55264-3.38069-3.43309-.3866-.88425-.47786-1.81489-.65983-3.67089-.02857-.2862-.15473-1.73418,.00037-3.65318,.10091-1.25399,.23571-1.75764,.57696-2.15309,.37896-.44058,.88952-.69289,1.42905-.81956,.01459-.16603,.06891-.32837,.17666-.48226,.44384-.63856,1.18677-.37612,1.58988-.23958,.2031,.07294,.45619,.16566,.74088,.2136,.44739,.07734,.71454-.00128,1.11892-.11836,.38693-.11234,.86804-.25204,1.53301-.24018,1.31219,.01803,2.28353,.60778,2.60385,.80185,1.68691,1.01362,2.26934,2.63075,2.94336,4.5032,.13393,.37533,.57841,1.73194,.68191,3.47889,.07472,1.26033-.09043,1.77624-.2798,2.1451-.38679,.75839-.97906,1.10993-2.44902,1.84956-1.53571,.77504-2.30622,1.16285-2.93798,1.36221-1.47009,.4615-2.39322,.75133-3.47921,.50911v.00004Z"/>
</g>
<path d="m0 418.48c0 0.66003 0.92528 1.19 2.0775 1.19h991.77c1.1521 0 2.0774-0.52997 2.0774-1.19 0-0.65997-0.92528-1.19-2.0774-1.19h-991.77c-1.1522 0-2.0775 0.53003-2.0775 1.19z" fill="#ccc"/>
<polygon points="503.94 410.97 517.83 410.97 524.43 357.41 503.94 357.41" fill="#ffb6b6"/>
<path d="m551.51 410.65c0.43232 0.72811 0.66043 3.0781 0.66043 3.9248 0 2.6026-2.1098 4.7125-4.7125 4.7125l-42.999-2e-5c-1.7755 0-3.2149-1.4393-3.2149-3.2149v-1.7902s-2.1271-5.3805 2.2523-12.012c0 0 5.443 5.1927 13.576-2.9405l2.3984-4.3449 17.361 12.697 9.623 1.1845c2.1053 0.25912 3.9719-0.04021 5.0548 1.7837h1.7e-4z" fill="#2f2e41"/>
<polygon points="441.56 410.97 455.44 410.97 462.05 357.41 441.56 357.41" fill="#ffb6b6"/>
<path d="m489.13 410.65c0.43232 0.72811 0.66043 3.0781 0.66043 3.9248 0 2.6026-2.1098 4.7125-4.7125 4.7125l-42.999-2e-5c-1.7755 0-3.2149-1.4393-3.2149-3.2149v-1.7902s-2.1271-5.3805 2.2523-12.012c0 0 5.443 5.1927 13.576-2.9405l2.3984-4.3449 17.361 12.697 9.623 1.1845c2.1053 0.25912 3.9719-0.04021 5.0548 1.7837h1.7e-4z" fill="#2f2e41"/>
<polygon points="501.74 45.276 504.38 69.877 473.63 67.241 478.9 44.397" fill="#ffb6b6"/>
<polygon points="501.74 45.276 504.38 69.877 473.63 67.241 478.9 44.397" opacity=".1" isolation="isolate"/>
<circle cx="490.76" cy="28.142" r="20.208" fill="#ffb6b6"/>
<polygon points="503.94 59.773 537.77 79.542 526.68 133.14 534.25 205.19 528.98 381.79 496.47 378.28 492.08 228.03 466.6 383.55 435.03 383.55 440.24 215.73 456.05 144.56 446.39 67.241 475.82 58.016" fill="#2f2e41"/>
<path d="m505.26 33.853s1.7573-6.1504 5.7111-5.7111 4.8324-3.0752 3.9538-4.8324-2.6359-10.544-2.6359-10.544 0.87863-6.1504-4.3931-7.029c-5.2718-0.87863-7.029-1.7573-7.9076-3.5145-0.87863-1.7573-14.058-3.5145-18.451-0.87863s-7.9076 7.6932-10.983 9.1184-5.7111 4.0611-3.9538 8.4542c1.7573 4.3931 4.3058 12.985 4.3058 12.985s4.4805-1.563 5.3591 1.0729-2.6359-0.87863 1.7573-7.9076 4.3931-14.058 11.422-11.422c7.029 2.6359 14.937 1.7573 14.058 7.029-0.87863 5.2718 1.7573 13.179 1.7573 13.179z" fill="#2f2e41"/>
<path d="m520.32 189.42c-4.2292 4.4779-5.3467 10.29-2.4965 12.981 2.8502 2.691 8.5881 1.2419 12.818-3.2382 1.7143-1.7664 2.9806-3.9177 3.693-6.2739l17.68-19.2-9.1866-8.1044-16.454 19.788c-2.3123 0.84629-4.3883 2.2342-6.0541 4.0474z" fill="#ffb6b6"/>
<polygon points="537.41 79.103 567.18 129.83 571.59 152.98 542.92 189.37 530.79 173.93 545.13 152.98 521.97 112.18" fill="#2f2e41"/>
<path d="m453.7 184.7v-59.805c0-9.1153 7.4154-16.531 16.531-16.531h91.42c9.1153 0 16.531 7.4154 16.531 16.531v59.805c0 9.1153-7.4154 16.531-16.531 16.531h-91.42c-9.1153 0-16.531-7.4154-16.531-16.531z" fill="#d46837"/>
<rect transform="translate(1027.9 284.32) rotate(180)" x="498.16" y="138.21" width="31.614" height="7.9036" fill="#3f3d56"/>
<rect transform="translate(707.14 -321.54) rotate(90)" x="506.44" y="179.96" width="15.807" height="25.687" fill="#3f3d56"/>
<rect transform="translate(632.34 -398.75) rotate(90)" x="507.64" y="103.96" width="15.807" height="25.687" fill="#3f3d56"/>
<path d="m462.95 178c4.2292 4.4779 5.3467 10.29 2.4965 12.981-2.8502 2.691-8.5881 1.2419-12.818-3.2382-1.7143-1.7664-2.9806-3.9177-3.693-6.2739l-17.68-19.2 9.1866-8.1044 16.454 19.788c2.3123 0.84629 4.3883 2.2342 6.0541 4.0474z" fill="#ffb6b6"/>
<polygon points="445.87 67.681 416.09 118.4 411.68 141.56 440.35 177.95 452.48 162.51 438.15 141.56 461.3 100.76" fill="#2f2e41"/>
<ellipse cx="75.666" cy="286.04" rx="27" ry="23.5" fill="#e6e6e6"/>
</svg>
